<svg width="760" height="210" viewBox="0 0 760 210" fill="none" xmlns="http://www.w3.org/2000/svg">
<path d="M5 35C5 18.4315 18.4315 5 35 5H725C741.569 5 755 18.4315 755 35V175C755 191.569 741.569 205 725 205H35C18.4315 205 5 191.569 5 175V35Z" stroke="#2F3136" stroke-width="10"/>
<path d="M238 70H289.031V79.7199H268.577V138.145H258.402V79.7199H238V70Z" fill="#2F3136"/>
<path d="M315.779 88.9115C316.338 88.9115 316.793 88.9468 317.142 89.0172C317.527 89.0876 317.877 89.1581 318.191 89.2285C318.471 89.2989 318.751 89.3694 319.03 89.4398V99.2125C318.751 99.1421 318.419 99.0717 318.034 99.0012C317.684 98.9308 317.317 98.8604 316.933 98.7899C316.548 98.6843 316.163 98.6314 315.779 98.6314C314.135 98.6314 312.597 98.966 311.163 99.6351C309.73 100.269 308.471 101.132 307.387 102.224C306.338 103.315 305.499 104.583 304.87 106.027C304.275 107.471 303.978 108.985 303.978 110.57V138.145H294.328V89.4398H301.303L303.454 94.3526C304.328 93.3313 305.359 92.4156 306.548 91.6056C307.562 90.9717 308.838 90.3731 310.377 89.8096C311.915 89.2109 313.716 88.9115 315.779 88.9115Z" fill="#2F3136"/>
<path d="M322.177 89.4398H332.404L345.831 124.622L359.257 89.4398H369.484L349.03 141.367C347.946 144.114 346.88 146.403 345.831 148.235C344.817 150.101 343.698 151.598 342.474 152.725C341.285 153.887 339.957 154.715 338.488 155.208C337.02 155.736 335.359 156 333.506 156C333.086 156 332.684 155.982 332.3 155.947C331.95 155.912 331.6 155.859 331.251 155.789C330.901 155.718 330.569 155.613 330.254 155.472V147.337C332.981 147.337 335.044 146.756 336.443 145.593C337.841 144.466 338.82 143.058 339.38 141.367L341.006 136.507L322.177 89.4398Z" fill="#2F3136"/>
<path d="M449.466 88.9115C451.774 88.9115 453.924 89.3694 455.917 90.285C457.91 91.1654 459.658 92.4861 461.162 94.2469C462.665 95.9726 463.854 98.0856 464.728 100.586C465.637 103.051 466.092 105.833 466.092 108.932V138.145H456.441V108.932C456.441 105.692 455.515 103.086 453.662 101.114C451.844 99.1069 449.728 98.1032 447.316 98.1032C444.868 98.1032 442.735 99.1069 440.917 101.114C439.099 103.086 438.19 105.692 438.19 108.932V138.145H428.487V108.932C428.487 105.692 427.578 103.086 425.76 101.114C423.942 99.1069 421.809 98.1032 419.361 98.1032C416.914 98.1032 414.781 99.1069 412.963 101.114C411.145 103.086 410.236 105.692 410.236 108.932V138.145H400.585V89.4398H407.561L409.711 94.3526C410.585 93.3313 411.617 92.4156 412.806 91.6056C413.82 90.9717 415.061 90.3731 416.529 89.8096C417.998 89.2109 419.659 88.9115 421.512 88.9115C423.819 88.9115 425.795 89.3165 427.438 90.1265C429.082 90.9013 430.48 91.7641 431.634 92.715C432.928 93.8771 434.029 95.145 434.938 96.5184C434.938 96.5184 435.253 96.131 435.882 95.3563C436.477 94.6167 437.386 93.7539 438.609 92.7678C439.833 91.7817 441.337 90.9013 443.12 90.1265C444.903 89.3165 447.018 88.9115 449.466 88.9115Z" fill="#2F3136"/>
<path d="M520.951 124.093C520.147 126.101 519.133 127.985 517.909 129.746C516.685 131.507 515.217 133.056 513.504 134.394C511.79 135.733 509.797 136.789 507.525 137.564C505.287 138.303 502.769 138.673 499.972 138.673C496.756 138.673 493.749 138.075 490.951 136.877C488.154 135.645 485.707 133.937 483.609 131.753C481.511 129.534 479.868 126.911 478.679 123.882C477.49 120.853 476.896 117.49 476.896 113.792C476.896 110.13 477.49 106.784 478.679 103.756C479.868 100.727 481.476 98.1208 483.504 95.9373C485.532 93.7187 487.927 91.993 490.689 90.7604C493.451 89.5278 496.371 88.9115 499.448 88.9115C502.525 88.9115 505.444 89.5278 508.206 90.7604C510.969 91.993 513.364 93.7187 515.392 95.9373C517.42 98.1208 519.028 100.727 520.217 103.756C521.406 106.784 522 110.13 522 113.792C522 114.356 521.965 114.919 521.895 115.483C521.825 116.011 521.755 116.469 521.685 116.856C521.615 117.349 521.545 117.772 521.476 118.124H487.07C487.21 119.638 487.647 121.082 488.382 122.456C489.116 123.829 490.025 125.044 491.109 126.101C492.228 127.122 493.556 127.95 495.095 128.584C496.633 129.182 498.259 129.482 499.972 129.482C502.909 129.482 505.234 128.848 506.948 127.58C508.696 126.312 509.955 125.15 510.724 124.093H520.951ZM499.448 98.1032C496.231 98.1032 493.504 99.2125 491.266 101.431C489.063 103.615 487.665 106.485 487.07 110.042H512.874C512.315 106.52 510.881 103.65 508.574 101.431C506.301 99.2125 503.259 98.1032 499.448 98.1032Z" fill="#2F3136"/>
</svg>
