<svg width="2048" height="2048" viewBox="0 0 2048 2048" fill="none" xmlns="http://www.w3.org/2000/svg">
<path d="M1510.02 570.14C1697.45 830.189 1732.42 1084.75 1614.93 1333.83C1497.45 1582.91 1261.92 1705.02 908.348 1700.16C554.777 1695.3 373.82 1525.94 365.475 1192.09C357.131 858.24 498.944 606.106 790.914 435.69C1082.88 265.274 1322.58 310.09 1510.02 570.14Z" fill="#282A2F"/>
<path d="M1084.55 1548.07C853.731 1610.43 679.372 1527.06 561.466 1297.95C443.561 1068.84 475.593 862.459 657.563 678.804C839.534 495.149 1052.23 459.325 1295.66 571.333C1539.09 683.34 1622.47 858.542 1545.79 1096.94C1469.11 1335.34 1315.36 1485.71 1084.55 1548.07Z" fill="#2F3136"/>
<path fill-rule="evenodd" clip-rule="evenodd" d="M1154.77 725C1165.81 809.859 1218.83 860.451 1311 865.834V961.277C1257.58 965.942 1210.8 950.334 1156.38 920.911V1099.42C1156.38 1326.19 879.658 1397.05 768.409 1234.51C696.92 1129.92 740.697 946.387 970.023 939.031V1039.68C952.552 1042.19 933.877 1046.14 916.808 1051.34C865.802 1066.77 836.885 1095.65 844.918 1146.6C860.38 1244.2 1044.12 1274.83 1044.12 1082.38V725.179H1154.77V725Z" fill="white"/>
</svg>
